<!DOCTYPE svg PUBLIC "-//W3C//DTD SVG 1.1//EN" "http://www.w3.org/Graphics/SVG/1.1/DTD/svg11.dtd">
<!-- Uploaded to: SVG Repo, www.svgrepo.com, Transformed by: SVG Repo Mixer Tools -->
<svg version="1.1" id="Icons" xmlns="http://www.w3.org/2000/svg" xmlns:xlink="http://www.w3.org/1999/xlink" viewBox="-3.2 -3.2 38.40 38.40" xml:space="preserve" width="800px" height="800px" fill="#eeeeee" stroke="#eeeeee" transform="matrix(1, 0, 0, 1, 0, 0)rotate(0)">
<g id="SVGRepo_bgCarrier" stroke-width="0"/>
<g id="SVGRepo_tracerCarrier" stroke-linecap="round" stroke-linejoin="round" stroke="#CCCCCC" stroke-width="0.192"/>
<g id="SVGRepo_iconCarrier"> <style type="text/css"> .st0{fill:none;stroke:#eeeeee;stroke-width:1.152;stroke-linecap:round;stroke-linejoin:round;stroke-miterlimit:10;} </style> <path class="st0" d="M16,2C9,2,4.9,5.5,4.2,10.4c-0.7,4.6,0.4,9.2,3,12.9c1.3,1.9,2.9,3.4,4.8,4.6l0,0c2.5,1.5,5.5,1.5,8,0l0,0 c1.9-1.2,3.5-2.7,4.8-4.6c2.6-3.7,3.7-8.4,3-12.9C27.1,5.5,23,2,16,2z"/> <ellipse transform="matrix(0.7071 -0.7071 0.7071 0.7071 -9.8623 12.7961)" class="st0" cx="10.5" cy="18.3" rx="2" ry="3.7"/> <ellipse transform="matrix(0.7071 -0.7071 0.7071 0.7071 -6.6405 20.5743)" class="st0" cx="21.5" cy="18.3" rx="3.7" ry="2"/> </g>
</svg>